<svg xmlns="http://www.w3.org/2000/svg" width="631" height="631" viewBox="0 0 631 631">
<g>
<path d="M 155.58 624.25 C150.83,577.94 154.28,527.49 165.42,480.50 C167.25,472.80 168.57,466.20 168.37,465.84 C168.16,465.48 161.59,467.67 153.75,470.71 C133.34,478.63 109.61,486.66 77.50,496.52 C62.10,501.24 38.61,508.69 25.31,513.06 C12.00,517.42 0.86,521.00 0.56,521.00 C0.25,521.00 0.00,520.59 0.00,520.09 C0.00,518.83 14.36,512.90 67.50,492.21 C123.73,470.32 173.70,449.17 177.69,445.57 C178.34,444.98 180.87,439.13 183.30,432.56 L 187.73 420.63 L 188.26 442.06 C188.95,469.66 191.79,485.75 199.70,507.00 C203.70,517.75 212.98,538.00 213.90,538.00 C214.23,537.99 216.24,534.60 218.37,530.46 C222.49,522.42 226.41,518.66 231.86,517.51 C234.14,517.02 235.74,515.84 236.86,513.80 C240.05,507.97 246.02,501.22 249.39,499.62 C251.64,498.55 255.49,498.00 260.69,498.00 C265.89,498.00 270.43,497.35 274.03,496.08 C277.04,495.03 282.79,493.84 286.81,493.45 C290.84,493.05 293.76,492.38 293.31,491.95 C292.87,491.53 286.88,487.93 280.00,483.95 C251.64,467.55 231.11,452.13 214.00,434.37 C200.88,420.76 194.25,411.24 193.37,404.77 C192.76,400.22 192.89,399.87 196.83,395.94 C199.76,393.01 201.46,392.01 202.82,392.44 C206.76,393.69 207.27,391.08 206.82,372.25 C206.56,361.29 205.95,353.74 205.23,352.50 C204.20,350.73 204.05,350.96 204.00,354.50 C203.95,357.76 203.75,358.17 202.90,356.72 C200.49,352.57 192.98,318.89 190.46,300.93 L 187.74 281.50 L 183.99 277.50 C181.92,275.30 179.73,272.52 179.12,271.32 C177.24,267.65 177.98,257.00 180.12,257.00 C180.60,257.00 181.00,258.01 181.01,259.25 C181.02,263.08 182.95,268.73 185.09,271.17 L 187.14 273.50 L 186.59 267.50 C186.30,264.20 185.32,250.02 184.43,236.00 L 182.82 210.50 L 178.01 206.00 C173.96,202.21 173.04,200.63 172.13,196.00 C169.74,183.79 168.00,162.52 168.01,145.50 C168.02,103.49 176.29,80.98 200.79,56.33 C228.18,28.76 260.77,12.95 300.52,7.95 C319.61,5.54 343.01,8.32 365.00,15.58 C377.77,19.80 397.62,29.36 404.77,34.74 C411.04,39.45 421.34,48.99 420.77,49.56 C420.55,49.78 416.39,48.61 411.52,46.95 C406.66,45.30 402.24,44.09 401.70,44.27 C401.17,44.44 403.73,46.54 407.39,48.93 C416.15,54.64 424.76,63.21 427.14,68.59 C428.20,70.98 429.33,76.53 429.68,80.98 C430.27,88.68 430.38,88.97 432.11,87.40 C433.11,86.49 434.68,83.79 435.60,81.38 C437.66,75.98 437.00,69.86 433.54,62.30 L 431.08 56.93 L 434.13 58.72 C445.44,65.33 455.96,82.26 458.52,97.96 L 459.25 102.42 L 455.44 99.08 C451.34,95.48 442.64,91.03 439.67,91.01 C438.28,91.00 439.15,92.57 443.36,97.64 C446.39,101.29 450.34,107.03 452.14,110.39 L 455.40 116.50 L 456.09 113.20 C456.46,111.38 456.98,109.69 457.23,109.44 C457.48,109.18 459.22,112.24 461.10,116.24 L 464.50 123.50 L 464.84 149.40 C465.18,175.58 464.25,189.67 461.43,200.77 C460.02,206.30 457.97,209.05 452.32,213.00 C450.30,214.41 450.14,215.58 449.55,233.00 C447.68,288.01 444.34,318.68 437.54,343.35 C435.59,350.42 433.93,356.49 433.84,356.85 C433.75,357.21 433.41,355.02 433.09,352.00 C432.53,346.80 432.43,346.63 431.16,348.85 C429.36,352.01 428.06,366.45 428.03,383.60 C428.00,396.30 428.19,397.86 429.94,399.45 C433.03,402.24 433.40,406.30 431.07,411.57 C422.53,430.87 397.73,451.77 348.01,481.54 L 331.51 491.41 L 337.93 492.71 C346.66,494.48 351.99,497.85 362.03,507.93 C369.37,515.31 390.48,538.41 400.72,550.27 C402.49,552.32 404.15,554.00 404.41,554.00 C405.45,554.00 435.23,491.46 438.21,483.00 C440.89,475.41 441.45,464.97 440.08,448.50 C439.44,440.80 438.70,431.80 438.44,428.50 L 437.97 422.50 L 441.49 429.50 C443.43,433.35 446.48,440.19 448.25,444.71 L 451.49 452.91 L 469.99 461.87 C490.93,472.00 497.51,474.85 543.00,493.52 C590.48,513.00 626.56,528.77 625.68,529.66 C625.48,529.85 616.14,526.82 604.91,522.92 C593.68,519.02 570.10,510.96 552.50,505.02 C513.36,491.80 494.36,485.02 472.50,476.49 C463.28,472.88 455.51,470.16 455.23,470.43 C454.96,470.71 455.93,483.66 457.39,499.21 C461.32,541.13 462.29,563.08 461.59,593.50 L 460.96 620.50 L 464.23 622.76 C466.03,624.00 469.08,626.36 471.00,627.98 L 474.50 630.95 L 459.23 630.97 L 443.95 631.00 L 445.40 628.75 C446.77,626.61 446.45,626.06 438.79,617.50 C428.88,606.41 414.33,588.59 382.87,549.00 C369.55,532.22 355.23,515.08 351.07,510.90 C341.24,501.03 339.11,500.45 316.07,501.38 C296.34,502.18 287.00,503.02 287.00,503.99 C287.00,504.38 292.06,506.62 298.25,508.98 C310.08,513.49 319.36,517.87 317.25,517.95 C316.56,517.98 305.31,515.73 292.25,512.95 C279.19,510.18 265.58,507.65 262.00,507.34 C256.31,506.85 255.15,507.05 252.72,508.98 C250.15,511.02 246.00,517.72 246.00,519.83 C246.00,520.32 248.81,521.76 252.25,523.01 C260.56,526.04 280.74,536.35 284.50,539.49 C286.15,540.87 286.83,541.80 286.00,541.55 C285.17,541.31 274.83,537.99 263.00,534.18 C251.18,530.36 239.56,526.92 237.19,526.52 C233.07,525.84 232.71,525.98 228.98,529.90 C224.91,534.18 222.00,541.57 222.00,547.63 C222.00,553.35 224.11,561.02 226.43,563.71 C229.56,567.35 230.75,566.05 230.21,559.58 L 229.76 554.07 L 232.75 554.93 C237.17,556.20 257.23,566.63 259.74,568.97 C262.41,571.46 263.48,576.60 262.09,580.26 C260.82,583.61 260.42,583.62 252.98,580.49 C244.15,576.78 235.81,575.05 223.50,574.39 C210.77,573.70 209.13,574.37 208.08,580.58 C206.82,588.09 210.24,601.21 214.79,606.36 C217.04,608.91 225.02,614.00 226.76,614.00 C227.63,614.00 226.92,612.35 224.81,609.47 C217.95,600.09 218.14,600.57 221.52,601.40 C223.16,601.81 228.76,604.15 233.96,606.60 C243.24,610.99 252.57,617.47 262.50,626.44 L 267.50 630.96 L 255.75 630.98 L 244.00 631.00 L 244.00 628.44 C244.00,625.14 238.36,622.52 227.94,620.98 C223.85,620.37 218.96,619.39 217.08,618.81 C211.88,617.18 205.63,610.77 202.39,603.75 C199.72,597.98 199.50,596.60 199.50,585.67 L 199.50 573.85 L 203.17 570.49 C205.19,568.63 208.68,566.63 210.92,566.02 C213.16,565.42 214.99,564.38 214.98,563.71 C214.92,560.79 209.71,550.23 201.50,536.41 C188.57,514.65 184.52,505.47 180.28,488.38 C177.42,476.80 176.46,474.14 175.85,476.06 C174.63,479.91 170.18,512.28 169.05,525.50 C166.63,553.72 168.75,600.77 173.63,627.75 L 174.22 631.00 L 165.25 631.00 L 156.28 631.00 L 155.58 624.25 ZM 446.89 590.00 C448.79,563.02 449.13,541.58 447.99,520.50 C447.37,508.95 446.55,497.72 446.17,495.54 L 445.48 491.58 L 442.58 499.04 C437.69,511.64 426.48,537.88 419.57,552.92 C415.96,560.78 413.00,567.37 413.00,567.55 C413.00,568.09 433.96,594.05 439.39,600.24 C442.16,603.39 444.75,605.64 445.15,605.24 C445.55,604.83 446.33,597.97 446.89,590.00 ZM 322.71 485.11 C368.55,460.10 401.84,437.23 411.24,424.31 C418.00,415.02 418.08,414.69 417.77,396.41 L 417.50 379.82 L 412.07 386.66 C399.37,402.65 386.61,417.95 386.26,417.59 C386.05,417.39 386.56,415.59 387.39,413.61 C388.22,411.62 388.71,410.00 388.47,410.00 C388.24,410.00 385.60,413.50 382.60,417.77 C375.36,428.11 373.69,429.80 364.95,435.69 C353.57,443.36 349.72,445.01 340.69,446.03 C336.19,446.55 329.09,447.47 324.91,448.07 C316.32,449.33 305.91,447.86 292.10,443.45 C283.17,440.60 282.34,440.50 284.00,442.50 C285.95,444.85 284.33,444.32 275.90,439.82 C265.59,434.33 259.61,428.95 250.84,417.29 C246.86,412.00 243.44,408.17 243.24,408.78 C243.04,409.39 243.39,410.85 244.02,412.03 C246.95,417.52 243.38,413.55 230.97,397.52 C215.14,377.08 216.24,376.72 215.87,402.50 C215.65,417.49 215.78,418.79 217.94,423.00 C222.78,432.45 244.30,451.18 267.62,466.25 C280.89,474.82 309.13,490.83 311.21,490.96 C311.60,490.98 316.78,488.35 322.71,485.11 ZM 301.86 391.00 C302.27,391.00 303.13,391.53 303.78,392.18 C304.43,392.83 305.16,393.17 305.39,392.93 C305.62,392.70 303.19,389.04 299.99,384.81 C295.76,379.22 293.84,375.64 292.96,371.72 C291.24,364.05 292.42,362.20 299.26,361.80 C310.12,361.18 339.90,362.49 341.05,363.65 C343.00,365.60 341.10,370.77 335.33,379.26 L 329.86 387.28 L 334.14 391.64 C338.97,396.56 341.48,397.31 340.78,393.62 C340.35,391.39 340.61,391.24 344.91,391.25 C347.48,391.26 351.67,390.31 354.41,389.10 C359.26,386.96 359.60,385.61 355.50,384.80 C353.75,384.45 353.87,384.21 356.50,382.83 C358.15,381.97 361.86,380.71 364.75,380.03 C369.83,378.84 371.09,377.79 369.00,376.50 C367.18,375.37 367.96,374.19 371.74,372.33 C376.66,369.93 377.77,366.69 376.21,359.27 C374.30,350.18 366.60,342.44 357.00,339.99 C354.52,339.35 348.45,337.48 343.51,335.82 C338.57,334.16 331.96,332.69 328.83,332.56 C322.18,332.28 318.83,330.41 316.98,325.96 L 315.66 322.76 L 313.31 327.38 C310.96,332.00 310.96,332.00 305.66,332.00 C302.72,332.00 297.26,333.05 293.43,334.35 C289.62,335.64 283.02,337.47 278.77,338.41 C264.32,341.62 255.97,350.14 255.18,362.46 L 254.79 368.71 L 258.92 369.37 C263.40,370.09 265.00,372.36 265.00,378.00 C265.00,379.89 265.60,381.02 266.75,381.33 C267.71,381.58 270.62,382.34 273.21,383.01 C275.80,383.69 279.71,385.78 281.91,387.66 C285.38,390.63 286.17,390.91 287.89,389.84 C289.64,388.74 290.48,389.17 295.18,393.55 L 300.50 398.50 L 300.81 394.75 C300.98,392.69 301.45,391.00 301.86,391.00 ZM 242.49 352.71 C242.59,339.44 244.18,334.98 251.27,328.15 C255.43,324.14 255.87,323.94 256.86,325.65 C257.87,327.38 258.62,327.15 268.22,322.13 C273.87,319.18 282.73,314.29 287.90,311.26 L 297.31 305.75 L 290.35 302.53 C283.24,299.24 279.00,295.24 279.00,291.83 C279.00,289.33 282.38,282.76 284.60,280.93 C286.20,279.61 286.29,279.75 285.72,282.63 C285.38,284.36 284.80,286.94 284.44,288.37 C283.94,290.39 284.21,291.12 285.64,291.57 C286.66,291.89 293.85,295.32 301.60,299.19 L 315.71 306.23 L 327.90 300.01 C342.96,292.33 343.71,291.39 341.00,283.50 C338.06,274.96 339.58,274.64 344.91,282.67 C349.17,289.11 349.01,292.64 344.25,297.16 C342.19,299.12 339.04,301.56 337.25,302.58 C335.46,303.60 334.00,304.70 334.00,305.03 C334.00,305.90 355.81,321.48 361.41,324.61 C366.35,327.37 367.60,327.11 368.17,323.21 C368.49,321.01 368.79,321.11 376.07,325.90 C380.45,328.78 384.88,332.67 386.57,335.10 C389.34,339.09 389.52,339.96 389.83,351.16 C390.02,357.67 390.56,363.00 391.04,363.00 C392.28,363.00 395.75,354.83 398.42,345.64 L 400.70 337.78 L 402.26 341.64 L 403.82 345.50 L 406.34 340.11 C407.72,337.15 409.64,331.82 410.60,328.27 C412.33,321.89 412.37,321.84 414.03,324.04 C416.00,326.66 416.21,326.39 418.47,318.50 C420.40,311.74 423.97,303.00 424.79,303.00 C425.10,303.00 426.16,303.74 427.16,304.64 C428.89,306.21 428.97,305.97 428.92,298.89 C428.88,293.34 429.64,289.03 431.95,281.57 C433.65,276.11 435.89,267.33 436.94,262.07 C438.90,252.21 442.52,223.16 441.87,222.57 C441.67,222.39 437.83,223.14 433.35,224.25 L 425.20 226.26 L 424.57 232.88 C422.47,254.70 413.94,268.96 398.44,276.63 C391.97,279.83 389.91,280.34 381.72,280.76 C366.01,281.59 355.31,277.31 344.55,265.91 C335.69,256.51 330.40,245.74 329.54,235.32 C328.63,224.37 328.12,223.47 321.94,221.98 C316.94,220.79 304.24,221.12 302.00,222.50 C301.45,222.84 301.00,227.09 301.00,231.94 C301.00,240.28 300.77,241.22 296.88,249.01 C286.88,268.98 268.02,279.39 247.75,276.13 C237.16,274.42 229.44,270.27 221.82,262.19 C212.66,252.49 209.22,244.03 207.26,226.45 L 206.50 219.62 L 200.50 217.82 C191.10,215.01 191.60,214.43 192.36,227.25 C192.72,233.44 193.89,244.57 194.95,252.00 C199.42,283.33 204.79,300.25 216.27,319.22 C218.18,322.37 220.04,326.83 220.40,329.13 C221.30,334.74 221.87,335.43 224.03,333.47 C225.78,331.89 225.92,332.00 226.86,335.65 C227.40,337.77 228.16,341.98 228.56,345.00 C229.18,349.80 229.41,350.21 230.29,348.25 C230.85,347.01 231.58,346.00 231.91,346.00 C232.25,346.00 233.53,348.81 234.76,352.25 C237.34,359.42 240.81,365.53 241.76,364.58 C242.11,364.22 242.44,358.88 242.49,352.71 ZM 394.25 272.71 C410.20,264.81 419.00,249.10 419.00,228.52 C419.00,224.35 418.39,219.48 417.65,217.70 C416.02,213.81 409.98,208.31 405.10,206.27 C388.75,199.44 351.60,206.84 340.49,219.15 C335.93,224.19 335.93,227.80 340.50,236.57 C342.42,240.26 344.00,243.67 344.00,244.14 C344.00,244.61 342.88,245.00 341.50,245.00 C338.18,245.00 338.33,246.11 342.67,253.87 C351.24,269.19 364.54,277.36 379.75,276.64 C385.64,276.36 388.37,275.62 394.25,272.71 ZM 264.95 270.92 C275.11,268.74 286.81,257.34 291.27,245.27 C294.29,237.10 294.37,223.35 291.43,219.33 C286.52,212.62 269.92,204.46 255.09,201.46 C243.09,199.03 234.66,199.81 226.20,204.12 C216.97,208.84 213.86,213.41 213.25,223.19 C212.37,237.21 216.25,249.08 224.68,258.09 C230.56,264.38 236.93,268.87 242.40,270.58 C247.52,272.18 258.30,272.34 264.95,270.92 ZM 337.39 214.48 C340.84,211.44 341.07,210.97 339.39,210.38 C336.29,209.28 332.11,204.88 332.70,203.34 C333.93,200.13 345.96,195.84 372.66,189.08 C400.21,182.11 396.84,182.21 404.70,188.11 C412.50,193.96 417.00,198.01 417.00,199.19 C417.00,199.63 413.51,200.04 409.25,200.09 C403.70,200.15 402.25,200.40 404.16,200.98 C410.50,202.89 417.15,207.52 421.13,212.79 L 425.26 218.25 L 430.71 217.69 C433.70,217.38 437.31,216.37 438.73,215.44 L 441.30 213.76 L 440.70 195.63 C439.92,172.14 439.14,169.49 430.02,159.73 L 423.07 152.28 L 421.98 131.39 C420.74,107.64 419.68,100.01 417.38,98.31 C414.58,96.23 405.01,95.69 393.07,96.93 C367.80,99.57 349.71,104.78 321.36,117.58 C312.09,121.77 302.70,125.84 300.50,126.62 C296.65,127.98 296.83,127.73 305.00,120.07 C309.67,115.68 312.96,112.07 312.29,112.05 C311.63,112.02 307.13,113.73 302.29,115.84 C297.46,117.96 291.32,120.22 288.66,120.88 C279.99,123.02 266.86,122.17 262.24,119.18 C261.48,118.69 264.44,117.90 269.67,117.20 C277.38,116.17 281.23,114.83 279.93,113.63 C279.70,113.41 275.81,111.39 271.31,109.14 C266.81,106.88 262.72,104.33 262.24,103.46 C260.04,99.53 242.81,107.22 233.90,116.11 C227.23,122.77 223.39,130.35 222.24,139.11 L 221.40 145.50 L 218.19 140.53 C214.43,134.73 213.18,130.82 212.33,122.25 C211.60,114.91 210.50,115.12 206.94,123.28 C204.51,128.85 203.78,140.50 205.37,148.40 L 206.15 152.30 L 202.85 149.53 L 199.56 146.76 L 198.71 150.13 C198.24,151.98 196.21,157.55 194.20,162.50 L 190.55 171.50 L 190.72 188.27 C190.81,197.50 191.16,205.94 191.51,207.03 C192.36,209.70 197.02,211.98 203.09,212.70 C208.04,213.28 208.10,213.26 213.46,207.95 C216.42,205.02 220.79,201.56 223.17,200.27 L 227.50 197.92 L 222.50 198.34 C219.75,198.57 216.64,199.11 215.59,199.55 C211.98,201.04 214.85,198.33 225.04,190.62 C232.09,185.28 235.95,183.00 237.94,183.00 C245.19,183.00 280.65,191.69 287.63,195.17 C292.54,197.62 293.27,200.20 290.17,204.04 L 288.34 206.30 L 276.08 202.07 C269.34,199.74 263.59,198.07 263.31,198.36 C262.79,198.88 267.40,201.06 272.09,202.51 C276.80,203.98 286.58,209.28 291.89,213.25 C297.25,217.26 297.31,217.27 302.22,216.14 C308.75,214.63 323.48,214.82 328.50,216.47 C330.70,217.20 332.73,217.82 333.00,217.85 C333.27,217.89 335.25,216.37 337.39,214.48 ZM 447.00 314.09 C447.00,313.69 449.51,310.46 452.58,306.93 C457.86,300.85 466.05,285.99 467.55,279.75 C468.08,277.58 467.86,277.00 466.54,277.00 C465.06,277.00 465.11,276.68 466.93,274.36 C469.98,270.48 472.88,260.21 475.06,245.50 C477.34,230.12 477.62,219.00 475.72,219.00 C473.63,219.00 469.95,221.84 461.64,229.89 L 453.78 237.50 L 454.47 233.50 C455.45,227.89 459.69,220.46 465.10,214.90 C473.78,205.98 482.01,206.22 485.55,215.50 C486.95,219.16 487.17,221.86 486.69,229.28 C485.76,243.53 474.75,287.64 469.58,297.84 C467.28,302.38 460.39,309.66 456.39,311.78 C453.46,313.33 447.00,314.93 447.00,314.09 ZM 182.00 311.06 C174.30,306.98 168.86,299.61 164.98,288.00 C163.78,284.42 160.55,273.17 157.81,263.00 C153.34,246.45 152.76,243.13 152.34,231.50 C151.93,220.27 152.12,218.03 153.68,215.07 C156.28,210.17 158.02,209.39 162.96,210.87 C170.22,213.05 178.47,223.45 180.50,233.00 L 181.24 236.50 L 174.87 230.40 C171.36,227.05 167.02,223.55 165.23,222.62 C162.24,221.07 161.91,221.07 161.34,222.54 C159.72,226.78 164.62,258.58 169.50,275.40 C173.64,289.68 177.96,298.03 186.83,308.91 C190.09,312.90 190.11,313.00 187.83,312.96 C186.55,312.93 183.93,312.08 182.00,311.06 ZM 452.19 271.28 C453.86,266.49 455.47,259.96 455.75,256.78 C456.32,250.51 457.07,249.67 458.78,253.41 C462.15,260.81 461.05,268.02 455.45,275.36 C449.74,282.84 448.64,281.46 452.19,271.28 ZM 287.00 347.96 C281.77,347.47 276.38,346.91 275.00,346.72 C272.50,346.39 272.50,346.38 275.50,345.09 C277.85,344.08 287.08,343.90 318.00,344.27 C355.28,344.71 365.23,345.46 360.41,347.45 C357.63,348.61 298.18,349.01 287.00,347.96 ZM 368.62 230.97 C364.94,229.86 361.34,226.49 360.57,223.41 C359.83,220.48 359.43,220.46 352.88,223.05 C342.68,227.07 344.80,219.56 355.09,215.22 C359.95,213.17 361.73,212.98 372.50,213.34 C387.46,213.83 395.78,216.24 402.12,221.92 C405.73,225.15 406.27,226.07 405.20,227.17 C404.12,228.27 402.64,228.05 396.39,225.81 L 388.87 223.13 L 385.09 226.91 C380.32,231.68 375.21,232.94 368.62,230.97 ZM 248.00 228.95 C246.07,227.76 243.58,225.95 242.47,224.92 C240.48,223.10 240.30,223.11 234.10,225.61 C226.62,228.64 224.29,227.78 227.64,223.25 C232.74,216.38 242.01,212.94 255.50,212.92 C269.68,212.90 283.00,218.01 283.00,223.45 C283.00,225.41 280.43,225.42 274.89,223.46 C271.70,222.34 270.42,222.23 270.14,223.08 C269.93,223.72 268.52,225.63 267.01,227.32 C264.58,230.03 263.52,230.43 257.88,230.75 C252.68,231.04 250.85,230.71 248.00,228.95 Z" fill="rgb(12, 16, 19)"/>
</g>
</svg>
